<svg xmlns="http://www.w3.org/2000/svg" xmlns:xlink="http://www.w3.org/1999/xlink" width="500" zoomAndPan="magnify" viewBox="0 0 375 374.999991" height="500" preserveAspectRatio="xMidYMid meet" version="1.0"><defs><g/><clipPath id="4b3314bcf6"><path d="M 238.769531 121.867188 L 359.519531 121.867188 L 359.519531 253.117188 L 238.769531 253.117188 Z M 238.769531 121.867188 " clip-rule="nonzero"/></clipPath></defs><rect x="-37.5" width="450" fill="#ffffff" y="-37.499999" height="449.999989" fill-opacity="1"/><rect x="-37.5" width="450" fill="#ffffff" y="-37.499999" height="449.999989" fill-opacity="1"/><g fill="#000000" fill-opacity="1"><g transform="translate(71.788616, 152.871563)"><g><path d="M 21.109375 -3.296875 L 21.84375 -3.296875 L 21.84375 0 L 2.28125 0 L 2.28125 -3.296875 L 17.75 -3.296875 C 17.863281 -4.691406 17.691406 -5.832031 17.234375 -6.71875 C 16.785156 -7.601562 16.144531 -8.253906 15.3125 -8.671875 C 14.476562 -9.097656 13.550781 -9.3125 12.53125 -9.3125 L 4.6875 -9.3125 L 6.796875 -13.546875 C 7.648438 -13.097656 8.414062 -12.832031 9.09375 -12.75 C 9.769531 -12.675781 10.566406 -12.640625 11.484375 -12.640625 C 14.890625 -12.640625 17.328125 -11.828125 18.796875 -10.203125 C 20.265625 -8.578125 21.035156 -6.273438 21.109375 -3.296875 Z M 21.109375 -3.296875 "/></g></g></g><g fill="#000000" fill-opacity="1"><g transform="translate(93.556079, 152.871563)"><g><path d="M -1.71875 0 C -1.96875 0 -2.179688 -0.0859375 -2.359375 -0.265625 C -2.535156 -0.441406 -2.625 -0.65625 -2.625 -0.90625 L -2.625 -2.375 C -2.625 -2.632812 -2.535156 -2.851562 -2.359375 -3.03125 C -2.179688 -3.207031 -1.941406 -3.296875 -1.640625 -3.296875 L 20.515625 -3.296875 C 20.515625 -4.804688 20.222656 -6.003906 19.640625 -6.890625 C 19.054688 -7.773438 18.285156 -8.40625 17.328125 -8.78125 C 16.367188 -9.15625 15.316406 -9.34375 14.171875 -9.34375 L 3.921875 -9.34375 L 6.015625 -13.546875 C 6.878906 -13.097656 7.648438 -12.832031 8.328125 -12.75 C 9.003906 -12.675781 9.785156 -12.640625 10.671875 -12.640625 L 14.171875 -12.640625 C 15.921875 -12.640625 17.523438 -12.347656 18.984375 -11.765625 C 20.441406 -11.179688 21.609375 -10.210938 22.484375 -8.859375 C 23.359375 -7.503906 23.796875 -5.648438 23.796875 -3.296875 L 25.3125 -3.296875 L 25.3125 0 Z M 11.625 6.65625 C 11.15625 6.65625 10.75 6.484375 10.40625 6.140625 C 10.070312 5.804688 9.90625 5.40625 9.90625 4.9375 C 9.90625 4.46875 10.070312 4.0625 10.40625 3.71875 C 10.75 3.382812 11.15625 3.21875 11.625 3.21875 C 12.082031 3.21875 12.476562 3.382812 12.8125 3.71875 C 13.15625 4.0625 13.328125 4.46875 13.328125 4.9375 C 13.328125 5.40625 13.15625 5.804688 12.8125 6.140625 C 12.476562 6.484375 12.082031 6.65625 11.625 6.65625 Z M 11.625 6.65625 "/></g></g></g><g fill="#000000" fill-opacity="1"><g transform="translate(118.788139, 152.871563)"><g><path d="M 10.21875 -17.921875 C 9.78125 -17.921875 9.394531 -18.082031 9.0625 -18.40625 C 8.738281 -18.738281 8.578125 -19.125 8.578125 -19.5625 C 8.578125 -20.03125 8.738281 -20.421875 9.0625 -20.734375 C 9.394531 -21.046875 9.78125 -21.203125 10.21875 -21.203125 C 10.6875 -21.203125 11.078125 -21.046875 11.390625 -20.734375 C 11.703125 -20.421875 11.859375 -20.03125 11.859375 -19.5625 C 11.859375 -19.125 11.703125 -18.738281 11.390625 -18.40625 C 11.078125 -18.082031 10.6875 -17.921875 10.21875 -17.921875 Z M -1.71875 0 C -1.96875 0 -2.179688 -0.0859375 -2.359375 -0.265625 C -2.535156 -0.441406 -2.625 -0.65625 -2.625 -0.90625 L -2.625 -2.375 C -2.625 -2.632812 -2.535156 -2.851562 -2.359375 -3.03125 C -2.179688 -3.207031 -1.96875 -3.296875 -1.71875 -3.296875 L 9.9375 -3.296875 L 9.9375 -6.890625 C 9.9375 -7.804688 9.898438 -8.601562 9.828125 -9.28125 C 9.765625 -9.957031 9.5 -10.722656 9.03125 -11.578125 L 13.234375 -13.6875 L 13.234375 0 Z M -1.71875 0 "/></g></g></g><g fill="#000000" fill-opacity="1"><g transform="translate(134.291338, 152.871563)"><g/></g></g><g fill="#000000" fill-opacity="1"><g transform="translate(140.590603, 152.871563)"><g><path d="M 8.359375 8.046875 C 6.941406 8.046875 5.753906 7.769531 4.796875 7.21875 C 3.835938 6.675781 3.117188 5.976562 2.640625 5.125 C 2.160156 4.269531 1.921875 3.378906 1.921875 2.453125 C 1.921875 1.492188 2.15625 0.578125 2.625 -0.296875 C 3.09375 -1.171875 3.800781 -1.890625 4.75 -2.453125 C 5.707031 -3.015625 6.910156 -3.296875 8.359375 -3.296875 L 11.171875 -3.296875 C 12.097656 -3.296875 12.898438 -3.335938 13.578125 -3.421875 C 14.253906 -3.515625 15.023438 -3.785156 15.890625 -4.234375 L 17.984375 0 L 8.265625 0 C 7.253906 0 6.5 0.25 6 0.75 C 5.5 1.25 5.257812 1.804688 5.28125 2.421875 C 5.28125 3.003906 5.53125 3.539062 6.03125 4.03125 C 6.539062 4.519531 7.285156 4.765625 8.265625 4.765625 L 19.078125 4.765625 C 20.054688 4.765625 20.863281 4.441406 21.5 3.796875 C 22.144531 3.148438 22.46875 2.335938 22.46875 1.359375 L 22.46875 -5.953125 C 22.46875 -8.023438 23.019531 -9.660156 24.125 -10.859375 C 25.238281 -12.066406 26.738281 -12.660156 28.625 -12.640625 C 30.445312 -12.609375 31.898438 -11.992188 32.984375 -10.796875 C 34.066406 -9.597656 34.609375 -7.984375 34.609375 -5.953125 L 34.609375 0 L 31.296875 2.28125 L 31.296875 -5.953125 C 31.296875 -7.023438 31.054688 -7.859375 30.578125 -8.453125 C 30.097656 -9.046875 29.414062 -9.34375 28.53125 -9.34375 C 27.632812 -9.34375 26.945312 -9.046875 26.46875 -8.453125 C 26 -7.859375 25.765625 -7.023438 25.765625 -5.953125 L 25.765625 1.359375 C 25.765625 2.691406 25.476562 3.859375 24.90625 4.859375 C 24.332031 5.867188 23.53125 6.648438 22.5 7.203125 C 21.476562 7.765625 20.300781 8.046875 18.96875 8.046875 Z M 13.375 13.375 C 12.925781 13.375 12.535156 13.207031 12.203125 12.875 C 11.878906 12.550781 11.71875 12.164062 11.71875 11.71875 C 11.71875 11.257812 11.878906 10.867188 12.203125 10.546875 C 12.535156 10.234375 12.925781 10.078125 13.375 10.078125 C 13.832031 10.078125 14.21875 10.234375 14.53125 10.546875 C 14.851562 10.867188 15.015625 11.257812 15.015625 11.71875 C 15.015625 12.164062 14.851562 12.550781 14.53125 12.875 C 14.21875 13.207031 13.832031 13.375 13.375 13.375 Z M 20.234375 13.375 C 19.785156 13.375 19.394531 13.207031 19.0625 12.875 C 18.738281 12.550781 18.578125 12.164062 18.578125 11.71875 C 18.578125 11.257812 18.738281 10.867188 19.0625 10.546875 C 19.394531 10.234375 19.785156 10.078125 20.234375 10.078125 C 20.703125 10.078125 21.097656 10.234375 21.421875 10.546875 C 21.742188 10.867188 21.90625 11.257812 21.90625 11.71875 C 21.90625 12.164062 21.742188 12.550781 21.421875 12.875 C 21.097656 13.207031 20.703125 13.375 20.234375 13.375 Z M 20.234375 13.375 "/></g></g></g><g fill="#000000" fill-opacity="1"><g transform="translate(177.476311, 152.871563)"><g><path d="M 15.6875 -3.296875 L 16.5625 -3.296875 L 16.5625 0 L 15.6875 0 C 15.6875 2.59375 15.046875 4.582031 13.765625 5.96875 C 12.492188 7.351562 10.859375 8.046875 8.859375 8.046875 C 8.015625 8.046875 7.304688 8.109375 6.734375 8.234375 C 6.160156 8.367188 5.550781 8.609375 4.90625 8.953125 L 2.796875 4.765625 L 8.609375 4.765625 C 9.890625 4.765625 10.816406 4.332031 11.390625 3.46875 C 11.960938 2.601562 12.25 1.445312 12.25 0 L 2.28125 0 L 2.28125 -3.296875 C 2.28125 -5.484375 2.597656 -7.265625 3.234375 -8.640625 C 3.878906 -10.015625 4.710938 -11.023438 5.734375 -11.671875 C 6.765625 -12.316406 7.828125 -12.640625 8.921875 -12.640625 C 10.046875 -12.640625 11.125 -12.320312 12.15625 -11.6875 C 13.195312 -11.0625 14.046875 -10.066406 14.703125 -8.703125 C 15.359375 -7.335938 15.6875 -5.535156 15.6875 -3.296875 Z M 5.421875 -3.296875 L 12.25 -3.296875 C 12.25 -4.828125 12.082031 -6.015625 11.75 -6.859375 C 11.425781 -7.703125 11.007812 -8.28125 10.5 -8.59375 C 9.988281 -8.90625 9.441406 -9.0625 8.859375 -9.0625 C 8.296875 -9.0625 7.75 -8.90625 7.21875 -8.59375 C 6.695312 -8.28125 6.265625 -7.703125 5.921875 -6.859375 C 5.585938 -6.015625 5.421875 -4.828125 5.421875 -3.296875 Z M 5.421875 -3.296875 "/></g></g></g><g fill="#000000" fill-opacity="1"><g transform="translate(194.029379, 152.871563)"><g><path d="M 6.546875 -23.59375 C 6.097656 -23.59375 5.710938 -23.753906 5.390625 -24.078125 C 5.066406 -24.398438 4.90625 -24.785156 4.90625 -25.234375 C 4.90625 -25.703125 5.066406 -26.09375 5.390625 -26.40625 C 5.710938 -26.71875 6.097656 -26.875 6.546875 -26.875 C 7.015625 -26.875 7.40625 -26.71875 7.71875 -26.40625 C 8.03125 -26.09375 8.1875 -25.703125 8.1875 -25.234375 C 8.1875 -24.785156 8.03125 -24.398438 7.71875 -24.078125 C 7.40625 -23.753906 7.015625 -23.59375 6.546875 -23.59375 Z M 13.40625 -23.59375 C 12.957031 -23.59375 12.570312 -23.753906 12.25 -24.078125 C 11.925781 -24.398438 11.765625 -24.785156 11.765625 -25.234375 C 11.765625 -25.703125 11.925781 -26.09375 12.25 -26.40625 C 12.570312 -26.71875 12.957031 -26.875 13.40625 -26.875 C 13.875 -26.875 14.269531 -26.71875 14.59375 -26.40625 C 14.914062 -26.09375 15.078125 -25.703125 15.078125 -25.234375 C 15.078125 -24.785156 14.914062 -24.398438 14.59375 -24.078125 C 14.269531 -23.753906 13.875 -23.59375 13.40625 -23.59375 Z M -1.75 0 C -1.9375 0 -2.097656 -0.0664062 -2.234375 -0.203125 C -2.378906 -0.347656 -2.453125 -0.515625 -2.453125 -0.703125 L -2.453125 -2.59375 C -2.453125 -2.78125 -2.378906 -2.941406 -2.234375 -3.078125 C -2.097656 -3.222656 -1.9375 -3.296875 -1.75 -3.296875 L 13.515625 -3.296875 L 13.515625 -8.078125 L 3.390625 -8.078125 L 3.390625 -11.40625 C 3.390625 -12.96875 3.679688 -14.34375 4.265625 -15.53125 C 4.847656 -16.726562 5.644531 -17.664062 6.65625 -18.34375 C 7.675781 -19.019531 8.84375 -19.34375 10.15625 -19.3125 C 11.476562 -19.3125 12.632812 -18.972656 13.625 -18.296875 C 14.625 -17.628906 15.398438 -16.703125 15.953125 -15.515625 C 16.515625 -14.335938 16.796875 -12.96875 16.796875 -11.40625 L 16.796875 0 Z M 6.578125 -11.40625 L 13.6875 -11.40625 C 13.6875 -13 13.367188 -14.164062 12.734375 -14.90625 C 12.109375 -15.65625 11.25 -16.03125 10.15625 -16.03125 C 9.03125 -16.03125 8.148438 -15.65625 7.515625 -14.90625 C 6.890625 -14.164062 6.578125 -13 6.578125 -11.40625 Z M 6.578125 -11.40625 "/></g></g></g><g fill="#e53a1e" fill-opacity="1"><g transform="translate(67.840441, 197.245506)"><g><path d="M 20.390625 -10.140625 C 20.390625 -7.660156 19.890625 -5.546875 18.890625 -3.796875 C 17.898438 -2.054688 16.4375 -0.863281 14.5 -0.21875 L 19.34375 4.8125 L 15.6875 4.8125 L 11.78125 0.25 C 11.664062 0.25 11.546875 0.253906 11.421875 0.265625 C 11.296875 0.273438 11.175781 0.28125 11.0625 0.28125 C 8.96875 0.28125 7.226562 -0.148438 5.84375 -1.015625 C 4.457031 -1.890625 3.425781 -3.109375 2.75 -4.671875 C 2.070312 -6.234375 1.734375 -8.066406 1.734375 -10.171875 C 1.734375 -12.222656 2.070312 -14.023438 2.75 -15.578125 C 3.425781 -17.140625 4.457031 -18.351562 5.84375 -19.21875 C 7.226562 -20.09375 8.976562 -20.53125 11.09375 -20.53125 C 13.113281 -20.53125 14.8125 -20.097656 16.1875 -19.234375 C 17.570312 -18.378906 18.617188 -17.171875 19.328125 -15.609375 C 20.035156 -14.054688 20.390625 -12.234375 20.390625 -10.140625 Z M 4.421875 -10.140625 C 4.421875 -7.585938 4.957031 -5.578125 6.03125 -4.109375 C 7.101562 -2.648438 8.78125 -1.921875 11.0625 -1.921875 C 13.351562 -1.921875 15.03125 -2.648438 16.09375 -4.109375 C 17.15625 -5.578125 17.6875 -7.585938 17.6875 -10.140625 C 17.6875 -12.679688 17.160156 -14.675781 16.109375 -16.125 C 15.054688 -17.570312 13.382812 -18.296875 11.09375 -18.296875 C 8.789062 -18.296875 7.101562 -17.570312 6.03125 -16.125 C 4.957031 -14.675781 4.421875 -12.679688 4.421875 -10.140625 Z M 4.421875 -10.140625 "/></g></g></g><g fill="#e53a1e" fill-opacity="1"><g transform="translate(89.946945, 197.245506)"><g><path d="M 8.4375 0 L 1.125 0 L 1.125 -1.46875 L 3.515625 -2.015625 L 3.515625 -18.171875 L 1.125 -18.75 L 1.125 -20.21875 L 8.4375 -20.21875 L 8.4375 -18.75 L 6.0625 -18.171875 L 6.0625 -2.015625 L 8.4375 -1.46875 Z M 8.4375 0 "/></g></g></g><g fill="#e53a1e" fill-opacity="1"><g transform="translate(99.54247, 197.245506)"><g><path d="M 25.96875 -20.21875 L 20.578125 0 L 18 0 L 14.078125 -13.25 C 13.898438 -13.78125 13.738281 -14.320312 13.59375 -14.875 C 13.457031 -15.4375 13.335938 -15.925781 13.234375 -16.34375 C 13.128906 -16.769531 13.066406 -17.070312 13.046875 -17.25 C 13.035156 -17 12.929688 -16.472656 12.734375 -15.671875 C 12.546875 -14.867188 12.332031 -14.035156 12.09375 -13.171875 L 8.265625 0 L 5.6875 0 L 0.34375 -20.21875 L 3 -20.21875 L 6.140625 -7.875 C 6.367188 -7 6.5625 -6.15625 6.71875 -5.34375 C 6.882812 -4.539062 7.015625 -3.78125 7.109375 -3.0625 C 7.203125 -3.789062 7.34375 -4.585938 7.53125 -5.453125 C 7.71875 -6.328125 7.9375 -7.179688 8.1875 -8.015625 L 11.75 -20.21875 L 14.375 -20.21875 L 18.09375 -7.921875 C 18.351562 -7.054688 18.578125 -6.1875 18.765625 -5.3125 C 18.953125 -4.445312 19.097656 -3.695312 19.203125 -3.0625 C 19.273438 -3.757812 19.398438 -4.515625 19.578125 -5.328125 C 19.753906 -6.148438 19.957031 -7.007812 20.1875 -7.90625 L 23.296875 -20.21875 Z M 25.96875 -20.21875 "/></g></g></g><g fill="#e53a1e" fill-opacity="1"><g transform="translate(125.866486, 197.245506)"><g><path d="M 15.4375 0 L 13 -6.25 L 4.984375 -6.25 L 2.578125 0 L 0 0 L 7.90625 -20.296875 L 10.1875 -20.296875 L 18.0625 0 Z M 12.234375 -8.515625 L 9.96875 -14.640625 C 9.90625 -14.785156 9.804688 -15.054688 9.671875 -15.453125 C 9.546875 -15.847656 9.421875 -16.257812 9.296875 -16.6875 C 9.171875 -17.113281 9.070312 -17.441406 9 -17.671875 C 8.851562 -17.085938 8.695312 -16.515625 8.53125 -15.953125 C 8.375 -15.398438 8.238281 -14.960938 8.125 -14.640625 L 5.828125 -8.515625 Z M 12.234375 -8.515625 "/></g></g></g><g fill="#e53a1e" fill-opacity="1"><g transform="translate(143.953631, 197.245506)"><g/></g></g><g fill="#e53a1e" fill-opacity="1"><g transform="translate(149.048605, 197.245506)"><g><path d="M 18.765625 0 L 15.796875 0 L 4.984375 -16.796875 L 4.875 -16.796875 C 4.90625 -16.128906 4.945312 -15.304688 5 -14.328125 C 5.0625 -13.347656 5.09375 -12.335938 5.09375 -11.296875 L 5.09375 0 L 2.75 0 L 2.75 -20.21875 L 5.6875 -20.21875 L 16.484375 -3.484375 L 16.59375 -3.484375 C 16.570312 -3.785156 16.546875 -4.238281 16.515625 -4.84375 C 16.492188 -5.445312 16.46875 -6.101562 16.4375 -6.8125 C 16.40625 -7.519531 16.390625 -8.1875 16.390625 -8.8125 L 16.390625 -20.21875 L 18.765625 -20.21875 Z M 18.765625 0 "/></g></g></g><g fill="#e53a1e" fill-opacity="1"><g transform="translate(170.560699, 197.245506)"><g><path d="M 15.4375 0 L 13 -6.25 L 4.984375 -6.25 L 2.578125 0 L 0 0 L 7.90625 -20.296875 L 10.1875 -20.296875 L 18.0625 0 Z M 12.234375 -8.515625 L 9.96875 -14.640625 C 9.90625 -14.785156 9.804688 -15.054688 9.671875 -15.453125 C 9.546875 -15.847656 9.421875 -16.257812 9.296875 -16.6875 C 9.171875 -17.113281 9.070312 -17.441406 9 -17.671875 C 8.851562 -17.085938 8.695312 -16.515625 8.53125 -15.953125 C 8.375 -15.398438 8.238281 -14.960938 8.125 -14.640625 L 5.828125 -8.515625 Z M 12.234375 -8.515625 "/></g></g></g><g fill="#e53a1e" fill-opacity="1"><g transform="translate(188.647845, 197.245506)"><g><path d="M -0.109375 5.375 C -0.566406 5.375 -0.960938 5.34375 -1.296875 5.28125 C -1.640625 5.21875 -1.941406 5.128906 -2.203125 5.015625 L -2.203125 2.859375 C -1.898438 2.953125 -1.578125 3.019531 -1.234375 3.0625 C -0.898438 3.113281 -0.546875 3.140625 -0.171875 3.140625 C 0.296875 3.140625 0.742188 3.046875 1.171875 2.859375 C 1.597656 2.671875 1.941406 2.34375 2.203125 1.875 C 2.472656 1.414062 2.609375 0.753906 2.609375 -0.109375 L 2.609375 -20.21875 L 5.15625 -20.21875 L 5.15625 -0.3125 C 5.15625 1.632812 4.671875 3.066406 3.703125 3.984375 C 2.742188 4.910156 1.472656 5.375 -0.109375 5.375 Z M -0.109375 5.375 "/></g></g></g><g fill="#e53a1e" fill-opacity="1"><g transform="translate(196.375218, 197.245506)"><g><path d="M 18.9375 -10.3125 C 18.9375 -6.894531 18.003906 -4.320312 16.140625 -2.59375 C 14.285156 -0.863281 11.695312 0 8.375 0 L 2.75 0 L 2.75 -20.21875 L 8.96875 -20.21875 C 10.988281 -20.21875 12.75 -19.835938 14.25 -19.078125 C 15.75 -18.328125 16.90625 -17.210938 17.71875 -15.734375 C 18.53125 -14.265625 18.9375 -12.457031 18.9375 -10.3125 Z M 16.25 -10.21875 C 16.25 -12.914062 15.582031 -14.890625 14.25 -16.140625 C 12.925781 -17.398438 11.046875 -18.03125 8.609375 -18.03125 L 5.296875 -18.03125 L 5.296875 -2.1875 L 8.046875 -2.1875 C 13.515625 -2.1875 16.25 -4.863281 16.25 -10.21875 Z M 16.25 -10.21875 "/></g></g></g><g fill="#000000" fill-opacity="1"><g transform="translate(77.457868, 229.491994)"><g><path d="M 4.3125 -9.609375 C 4.5 -9.609375 4.660156 -9.539062 4.796875 -9.40625 C 4.929688 -9.269531 5 -9.101562 5 -8.90625 C 5 -8.707031 4.929688 -8.539062 4.796875 -8.40625 C 4.660156 -8.269531 4.5 -8.203125 4.3125 -8.203125 C 4.125 -8.203125 3.957031 -8.269531 3.8125 -8.40625 C 3.675781 -8.539062 3.609375 -8.707031 3.609375 -8.90625 C 3.609375 -9.101562 3.675781 -9.269531 3.8125 -9.40625 C 3.957031 -9.539062 4.125 -9.609375 4.3125 -9.609375 Z M 6.015625 -9.609375 C 6.210938 -9.609375 6.378906 -9.539062 6.515625 -9.40625 C 6.648438 -9.269531 6.71875 -9.101562 6.71875 -8.90625 C 6.71875 -8.707031 6.648438 -8.539062 6.515625 -8.40625 C 6.378906 -8.269531 6.210938 -8.203125 6.015625 -8.203125 C 5.828125 -8.203125 5.664062 -8.269531 5.53125 -8.40625 C 5.394531 -8.539062 5.328125 -8.707031 5.328125 -8.90625 C 5.328125 -9.101562 5.394531 -9.269531 5.53125 -9.40625 C 5.664062 -9.539062 5.828125 -9.609375 6.015625 -9.609375 Z M 6.71875 -6.875 L 6.71875 -1.546875 C 6.71875 -1.367188 6.765625 -1.234375 6.859375 -1.140625 C 6.941406 -1.046875 7.035156 -1 7.140625 -1 L 7.4375 -1 L 7.4375 0 L 6.84375 0 C 6.40625 0 6.0625 -0.164062 5.8125 -0.5 C 5.195312 -0.0625 4.535156 0.15625 3.828125 0.15625 C 2.835938 0.15625 2.054688 -0.226562 1.484375 -1 C 1.015625 -1.632812 0.78125 -2.390625 0.78125 -3.265625 C 0.78125 -4.285156 1.117188 -5.132812 1.796875 -5.8125 C 2.398438 -6.425781 3.140625 -6.734375 4.015625 -6.734375 C 4.515625 -6.734375 5.015625 -6.625 5.515625 -6.40625 L 6.125 -6.875 Z M 5.515625 -5.40625 C 5.109375 -5.613281 4.691406 -5.71875 4.265625 -5.71875 C 3.546875 -5.71875 2.96875 -5.4375 2.53125 -4.875 C 2.164062 -4.414062 1.984375 -3.867188 1.984375 -3.234375 C 1.984375 -2.484375 2.160156 -1.890625 2.515625 -1.453125 C 2.859375 -1.054688 3.328125 -0.859375 3.921875 -0.859375 C 4.429688 -0.859375 4.960938 -0.992188 5.515625 -1.265625 Z M 5.515625 -5.40625 "/></g></g></g><g fill="#000000" fill-opacity="1"><g transform="translate(84.843045, 229.491994)"><g><path d="M 3.6875 -6.5 L 3.6875 -1.34375 C 3.6875 -1.226562 3.671875 -1.113281 3.640625 -1 L 4.390625 -1 L 4.390625 0 L 3.84375 0 L 3.4375 -0.5 L 3.390625 -0.5 C 3.140625 -0.164062 2.8125 0 2.40625 0 L -0.0625 0 L -0.0625 -1 L 1.953125 -1 C 2.097656 -1 2.21875 -1.046875 2.3125 -1.140625 C 2.425781 -1.242188 2.484375 -1.378906 2.484375 -1.546875 L 2.484375 -6.5 Z M 1.265625 1.46875 C 1.453125 1.46875 1.613281 1.535156 1.75 1.671875 C 1.894531 1.804688 1.96875 1.96875 1.96875 2.15625 C 1.96875 2.351562 1.894531 2.519531 1.75 2.65625 C 1.613281 2.800781 1.453125 2.875 1.265625 2.875 C 1.078125 2.875 0.914062 2.800781 0.78125 2.65625 C 0.644531 2.519531 0.578125 2.351562 0.578125 2.15625 C 0.578125 1.96875 0.644531 1.804688 0.78125 1.671875 C 0.914062 1.535156 1.078125 1.46875 1.265625 1.46875 Z M 2.984375 1.46875 C 3.179688 1.46875 3.347656 1.535156 3.484375 1.671875 C 3.617188 1.804688 3.6875 1.96875 3.6875 2.15625 C 3.6875 2.351562 3.617188 2.519531 3.484375 2.65625 C 3.347656 2.800781 3.179688 2.875 2.984375 2.875 C 2.796875 2.875 2.628906 2.800781 2.484375 2.65625 C 2.347656 2.519531 2.28125 2.351562 2.28125 2.15625 C 2.28125 1.96875 2.347656 1.804688 2.484375 1.671875 C 2.628906 1.535156 2.796875 1.46875 2.984375 1.46875 Z M 2.984375 1.46875 "/></g></g></g><g fill="#000000" fill-opacity="1"><g transform="translate(89.192246, 229.491994)"><g><path d="M 13.375 -6.5 L 13.375 -1.34375 C 13.375 -0.976562 13.25 -0.660156 13 -0.390625 C 12.75 -0.128906 12.453125 0 12.109375 0 L 9.375 0 L 8.921875 -0.5 L 8.890625 -0.5 C 8.617188 -0.164062 8.285156 0 7.890625 0 L 5.1875 0 L 4.71875 -0.5 L 4.671875 -0.5 C 4.410156 -0.164062 4.082031 0 3.6875 0 L -0.0625 0 L -0.0625 -1 L 3.21875 -1 C 3.570312 -1 3.75 -1.179688 3.75 -1.546875 L 3.75 -4.875 L 4.953125 -4.875 L 4.953125 -1.34375 C 4.953125 -1.21875 4.941406 -1.101562 4.921875 -1 L 7.4375 -1 C 7.789062 -1 7.96875 -1.179688 7.96875 -1.546875 L 7.96875 -5.6875 L 9.171875 -5.6875 L 9.171875 -1.34375 C 9.171875 -1.21875 9.15625 -1.101562 9.125 -1 L 11.640625 -1 C 11.992188 -1 12.171875 -1.179688 12.171875 -1.546875 L 12.171875 -6.5 Z M 13.375 -6.5 "/></g></g></g><g fill="#000000" fill-opacity="1"><g transform="translate(103.538964, 229.491994)"><g><path d="M 1.984375 -6.578125 C 2.316406 -6.640625 2.675781 -6.671875 3.0625 -6.671875 C 4.113281 -6.671875 4.957031 -6.351562 5.59375 -5.71875 C 6.164062 -5.132812 6.453125 -4.394531 6.453125 -3.5 L 6.453125 -1.34375 C 6.453125 -1.21875 6.441406 -1.101562 6.421875 -1 L 6.828125 -1 L 6.828125 0 L 6.609375 0 L 6.21875 -0.5 L 6.171875 -0.5 C 6.097656 -0.40625 6.015625 -0.316406 5.921875 -0.234375 C 5.691406 -0.078125 5.445312 0 5.1875 0 L 0.546875 0 L 0.546875 -1 L 4.734375 -1 C 5.078125 -1 5.25 -1.179688 5.25 -1.546875 L 5.25 -3.328125 C 5.25 -4.003906 5.046875 -4.5625 4.640625 -5 C 4.210938 -5.445312 3.546875 -5.675781 2.640625 -5.6875 C 2.378906 -5.6875 2.160156 -5.671875 1.984375 -5.640625 Z M 1.984375 -6.578125 "/></g></g></g><g fill="#000000" fill-opacity="1"><g transform="translate(110.302826, 229.491994)"><g><path d="M 3.078125 -9.609375 C 3.273438 -9.609375 3.441406 -9.539062 3.578125 -9.40625 C 3.710938 -9.269531 3.78125 -9.101562 3.78125 -8.90625 C 3.78125 -8.707031 3.710938 -8.539062 3.578125 -8.40625 C 3.441406 -8.269531 3.273438 -8.203125 3.078125 -8.203125 C 2.890625 -8.203125 2.726562 -8.269531 2.59375 -8.40625 C 2.457031 -8.539062 2.390625 -8.707031 2.390625 -8.90625 C 2.390625 -9.101562 2.457031 -9.269531 2.59375 -9.40625 C 2.726562 -9.539062 2.890625 -9.609375 3.078125 -9.609375 Z M 3.6875 -6.5 L 3.6875 -1.34375 C 3.6875 -1.226562 3.671875 -1.113281 3.640625 -1 L 4.390625 -1 L 4.390625 0 L 3.84375 0 L 3.4375 -0.5 L 3.390625 -0.5 C 3.140625 -0.164062 2.8125 0 2.40625 0 L -0.0625 0 L -0.0625 -1 L 1.953125 -1 C 2.097656 -1 2.21875 -1.046875 2.3125 -1.140625 C 2.425781 -1.242188 2.484375 -1.378906 2.484375 -1.546875 L 2.484375 -6.5 Z M 3.6875 -6.5 "/></g></g></g><g fill="#000000" fill-opacity="1"><g transform="translate(114.652027, 229.491994)"><g><path d="M 3.4375 -6.34375 C 4.4375 -6.800781 5.476562 -7.03125 6.5625 -7.03125 C 9.03125 -7.03125 10.265625 -5.625 10.265625 -2.8125 L 10.265625 -1.328125 C 10.265625 -1.210938 10.253906 -1.101562 10.234375 -1 L 10.734375 -1 L 10.734375 0 L 10.421875 0 L 10.03125 -0.5 L 9.984375 -0.5 C 9.910156 -0.40625 9.828125 -0.316406 9.734375 -0.234375 C 9.503906 -0.078125 9.265625 0 9.015625 0 L 5.609375 0 C 5.066406 0 4.695312 -0.03125 4.5 -0.09375 L 4.453125 -0.09375 C 4.265625 -0.03125 3.890625 0 3.328125 0 L -0.0625 0 L -0.0625 -1 L 2.6875 -1 C 2.46875 -1.25 2.296875 -1.546875 2.171875 -1.890625 C 2.046875 -2.242188 1.984375 -2.625 1.984375 -3.03125 C 1.984375 -3.738281 2.140625 -4.320312 2.453125 -4.78125 C 2.691406 -5.125 3.019531 -5.378906 3.4375 -5.546875 Z M 9.0625 -2.609375 C 9.0625 -3.828125 8.851562 -4.691406 8.4375 -5.203125 C 7.988281 -5.722656 7.269531 -5.984375 6.28125 -5.984375 C 5.664062 -5.984375 5.070312 -5.898438 4.5 -5.734375 C 5.40625 -5.722656 6.070312 -5.394531 6.5 -4.75 C 6.8125 -4.289062 6.96875 -3.71875 6.96875 -3.03125 C 6.96875 -2.675781 6.914062 -2.332031 6.8125 -2 C 6.6875 -1.601562 6.5 -1.269531 6.25 -1 L 8.546875 -1 C 8.710938 -1 8.847656 -1.066406 8.953125 -1.203125 C 9.023438 -1.296875 9.0625 -1.410156 9.0625 -1.546875 Z M 5.90625 -3.046875 C 5.90625 -3.609375 5.773438 -4.050781 5.515625 -4.375 C 5.253906 -4.707031 4.898438 -4.875 4.453125 -4.875 C 3.992188 -4.875 3.640625 -4.710938 3.390625 -4.390625 C 3.140625 -4.066406 3.015625 -3.617188 3.015625 -3.046875 C 3.015625 -2.492188 3.148438 -2.03125 3.421875 -1.65625 C 3.691406 -1.289062 4.035156 -1.101562 4.453125 -1.09375 C 4.867188 -1.101562 5.210938 -1.289062 5.484375 -1.65625 C 5.765625 -2.03125 5.90625 -2.492188 5.90625 -3.046875 Z M 5.90625 -3.046875 "/></g></g></g><g fill="#000000" fill-opacity="1"><g transform="translate(125.327341, 229.491994)"><g><path d="M 3.6875 -10.109375 L 3.6875 -1.34375 C 3.6875 -0.976562 3.5625 -0.664062 3.3125 -0.40625 C 3.0625 -0.132812 2.757812 0 2.40625 0 L -0.0625 0 L -0.0625 -1 L 1.953125 -1 C 2.128906 -1 2.265625 -1.0625 2.359375 -1.1875 C 2.441406 -1.289062 2.484375 -1.410156 2.484375 -1.546875 L 2.484375 -10.109375 Z M 3.6875 -10.109375 "/></g></g></g><g fill="#000000" fill-opacity="1"><g transform="translate(129.987199, 229.491994)"><g><path d="M 2.171875 -10.109375 L 2.171875 -0.140625 L 1.5625 0.359375 L 0.96875 0.359375 L 0.96875 -10.109375 Z M 2.171875 -10.109375 "/></g></g></g><g fill="#000000" fill-opacity="1"><g transform="translate(133.136141, 229.491994)"><g/></g></g><g fill="#000000" fill-opacity="1"><g transform="translate(135.734365, 229.491994)"><g><path d="M 5.921875 -6.875 C 6.109375 -6.875 6.269531 -6.804688 6.40625 -6.671875 C 6.539062 -6.535156 6.609375 -6.367188 6.609375 -6.171875 C 6.609375 -5.984375 6.539062 -5.820312 6.40625 -5.6875 C 6.269531 -5.550781 6.109375 -5.484375 5.921875 -5.484375 C 5.722656 -5.484375 5.554688 -5.550781 5.421875 -5.6875 C 5.285156 -5.820312 5.21875 -5.984375 5.21875 -6.171875 C 5.21875 -6.367188 5.285156 -6.535156 5.421875 -6.671875 C 5.554688 -6.804688 5.722656 -6.875 5.921875 -6.875 Z M 7.625 -6.875 C 7.820312 -6.875 7.988281 -6.804688 8.125 -6.671875 C 8.257812 -6.535156 8.328125 -6.367188 8.328125 -6.171875 C 8.328125 -5.984375 8.257812 -5.820312 8.125 -5.6875 C 7.988281 -5.550781 7.820312 -5.484375 7.625 -5.484375 C 7.4375 -5.484375 7.273438 -5.550781 7.140625 -5.6875 C 7.003906 -5.820312 6.9375 -5.984375 6.9375 -6.171875 C 6.9375 -6.367188 7.003906 -6.535156 7.140625 -6.671875 C 7.273438 -6.804688 7.4375 -6.875 7.625 -6.875 Z M 12.546875 -6.5 L 12.546875 -1.34375 C 12.546875 -1 12.441406 -0.707031 12.234375 -0.46875 C 11.972656 -0.15625 11.648438 0 11.265625 0 L 3.1875 0 C 2.644531 0 2.175781 -0.175781 1.78125 -0.53125 C 1.238281 -1 0.96875 -1.597656 0.96875 -2.328125 L 0.96875 -4.984375 L 1.578125 -5.484375 L 2.171875 -5.484375 L 2.171875 -2.328125 C 2.171875 -1.960938 2.304688 -1.648438 2.578125 -1.390625 C 2.828125 -1.128906 3.144531 -1 3.53125 -1 L 10.8125 -1 C 11.164062 -1 11.34375 -1.179688 11.34375 -1.546875 L 11.34375 -6.5 Z M 12.546875 -6.5 "/></g></g></g><g fill="#000000" fill-opacity="1"><g transform="translate(149.247962, 229.491994)"><g><path d="M 2.171875 -10.109375 L 2.171875 -0.140625 L 1.5625 0.359375 L 0.96875 0.359375 L 0.96875 -10.109375 Z M 2.171875 -10.109375 "/></g></g></g><g fill="#000000" fill-opacity="1"><g transform="translate(152.396903, 229.491994)"><g><path d="M 4.6875 -6.5 L 4.6875 -0.125 C 4.6875 0.914062 4.390625 1.738281 3.796875 2.34375 C 3.335938 2.8125 2.71875 3.125 1.9375 3.28125 C 1.632812 3.332031 1.304688 3.359375 0.953125 3.359375 C 0.722656 3.359375 0.503906 3.351562 0.296875 3.34375 L -0.171875 2.765625 L -0.171875 2.3125 C 0.0976562 2.351562 0.394531 2.375 0.71875 2.375 C 2.5625 2.375 3.484375 1.523438 3.484375 -0.171875 L 3.484375 -6.5 Z M 4.6875 -6.5 "/></g></g></g><g fill="#000000" fill-opacity="1"><g transform="translate(158.073459, 229.491994)"><g><path d="M 2.171875 -10.109375 L 2.171875 -1.546875 C 2.171875 -1.390625 2.21875 -1.257812 2.3125 -1.15625 C 2.414062 -1.050781 2.550781 -1 2.71875 -1 L 2.890625 -1 L 2.890625 0 L 2.25 0 C 1.945312 0 1.679688 -0.0976562 1.453125 -0.296875 C 1.128906 -0.566406 0.96875 -0.914062 0.96875 -1.34375 L 0.96875 -10.109375 Z M 2.171875 -10.109375 "/></g></g></g><g fill="#000000" fill-opacity="1"><g transform="translate(160.925857, 229.491994)"><g><path d="M 8.578125 -10.96875 C 8.765625 -10.96875 8.921875 -10.898438 9.046875 -10.765625 C 9.171875 -10.628906 9.234375 -10.472656 9.234375 -10.296875 C 9.234375 -10.117188 9.171875 -9.960938 9.046875 -9.828125 C 8.921875 -9.703125 8.765625 -9.640625 8.578125 -9.640625 C 8.398438 -9.640625 8.242188 -9.703125 8.109375 -9.828125 C 7.972656 -9.960938 7.90625 -10.117188 7.90625 -10.296875 C 7.90625 -10.472656 7.972656 -10.628906 8.109375 -10.765625 C 8.242188 -10.898438 8.398438 -10.96875 8.578125 -10.96875 Z M 7.71875 -9.609375 C 7.914062 -9.609375 8.082031 -9.539062 8.21875 -9.40625 C 8.351562 -9.269531 8.421875 -9.101562 8.421875 -8.90625 C 8.421875 -8.707031 8.351562 -8.539062 8.21875 -8.40625 C 8.082031 -8.269531 7.914062 -8.203125 7.71875 -8.203125 C 7.53125 -8.203125 7.363281 -8.269531 7.21875 -8.40625 C 7.082031 -8.539062 7.015625 -8.707031 7.015625 -8.90625 C 7.015625 -9.101562 7.082031 -9.269531 7.21875 -9.40625 C 7.363281 -9.539062 7.53125 -9.609375 7.71875 -9.609375 Z M 9.4375 -9.609375 C 9.625 -9.609375 9.785156 -9.539062 9.921875 -9.40625 C 10.054688 -9.269531 10.125 -9.101562 10.125 -8.90625 C 10.125 -8.707031 10.054688 -8.539062 9.921875 -8.40625 C 9.785156 -8.269531 9.625 -8.203125 9.4375 -8.203125 C 9.25 -8.203125 9.085938 -8.269531 8.953125 -8.40625 C 8.816406 -8.539062 8.75 -8.707031 8.75 -8.90625 C 8.75 -9.101562 8.816406 -9.269531 8.953125 -9.40625 C 9.085938 -9.539062 9.25 -9.609375 9.4375 -9.609375 Z M 13.375 -6.5 L 13.375 -1.34375 C 13.375 -1.21875 13.359375 -1.101562 13.328125 -1 L 14.09375 -1 L 14.09375 0 L 13.53125 0 L 13.140625 -0.5 L 13.09375 -0.5 C 12.832031 -0.164062 12.503906 0 12.109375 0 L 9.328125 0 L 8.921875 -0.5 L 8.890625 -0.5 C 8.617188 -0.164062 8.285156 0 7.890625 0 L 5.109375 0 L 4.71875 -0.5 L 4.671875 -0.5 C 4.410156 -0.164062 4.082031 0 3.6875 0 L -0.0625 0 L -0.0625 -1 L 3.21875 -1 C 3.570312 -1 3.75 -1.179688 3.75 -1.546875 L 3.75 -4.875 L 4.953125 -4.875 L 4.953125 -1.34375 C 4.953125 -1.21875 4.941406 -1.101562 4.921875 -1 L 7.4375 -1 C 7.789062 -1 7.96875 -1.179688 7.96875 -1.546875 L 7.96875 -5.6875 L 9.171875 -5.6875 L 9.171875 -1.34375 C 9.171875 -1.21875 9.15625 -1.101562 9.125 -1 L 11.640625 -1 C 11.992188 -1 12.171875 -1.179688 12.171875 -1.546875 L 12.171875 -6.5 Z M 13.375 -6.5 "/></g></g></g><g fill="#000000" fill-opacity="1"><g transform="translate(174.961917, 229.491994)"><g><path d="M 1.390625 -9.609375 C 1.585938 -9.609375 1.753906 -9.539062 1.890625 -9.40625 C 2.023438 -9.269531 2.09375 -9.101562 2.09375 -8.90625 C 2.09375 -8.707031 2.023438 -8.539062 1.890625 -8.40625 C 1.753906 -8.269531 1.585938 -8.203125 1.390625 -8.203125 C 1.203125 -8.203125 1.039062 -8.269531 0.90625 -8.40625 C 0.769531 -8.539062 0.703125 -8.707031 0.703125 -8.90625 C 0.703125 -9.101562 0.769531 -9.269531 0.90625 -9.40625 C 1.039062 -9.539062 1.203125 -9.609375 1.390625 -9.609375 Z M 3.125 -9.609375 C 3.3125 -9.609375 3.472656 -9.539062 3.609375 -9.40625 C 3.742188 -9.269531 3.8125 -9.101562 3.8125 -8.90625 C 3.8125 -8.707031 3.742188 -8.539062 3.609375 -8.40625 C 3.472656 -8.269531 3.3125 -8.203125 3.125 -8.203125 C 2.925781 -8.203125 2.757812 -8.269531 2.625 -8.40625 C 2.488281 -8.539062 2.421875 -8.707031 2.421875 -8.90625 C 2.421875 -9.101562 2.488281 -9.269531 2.625 -9.40625 C 2.757812 -9.539062 2.925781 -9.609375 3.125 -9.609375 Z M 3.6875 -6.5 L 3.6875 -1.34375 C 3.6875 -1.226562 3.671875 -1.113281 3.640625 -1 L 4.390625 -1 L 4.390625 0 L 3.84375 0 L 3.4375 -0.5 L 3.390625 -0.5 C 3.140625 -0.164062 2.8125 0 2.40625 0 L -0.0625 0 L -0.0625 -1 L 1.953125 -1 C 2.097656 -1 2.21875 -1.046875 2.3125 -1.140625 C 2.425781 -1.242188 2.484375 -1.378906 2.484375 -1.546875 L 2.484375 -6.5 Z M 3.6875 -6.5 "/></g></g></g><g fill="#000000" fill-opacity="1"><g transform="translate(179.311119, 229.491994)"><g><path d="M 13.375 -6.5 L 13.375 -1.34375 C 13.375 -0.976562 13.25 -0.660156 13 -0.390625 C 12.75 -0.128906 12.453125 0 12.109375 0 L 9.375 0 L 8.921875 -0.5 L 8.890625 -0.5 C 8.617188 -0.164062 8.285156 0 7.890625 0 L 5.1875 0 L 4.71875 -0.5 L 4.671875 -0.5 C 4.410156 -0.164062 4.082031 0 3.6875 0 L -0.0625 0 L -0.0625 -1 L 3.21875 -1 C 3.570312 -1 3.75 -1.179688 3.75 -1.546875 L 3.75 -4.875 L 4.953125 -4.875 L 4.953125 -1.34375 C 4.953125 -1.21875 4.941406 -1.101562 4.921875 -1 L 7.4375 -1 C 7.789062 -1 7.96875 -1.179688 7.96875 -1.546875 L 7.96875 -5.6875 L 9.171875 -5.6875 L 9.171875 -1.34375 C 9.171875 -1.21875 9.15625 -1.101562 9.125 -1 L 11.640625 -1 C 11.992188 -1 12.171875 -1.179688 12.171875 -1.546875 L 12.171875 -6.5 Z M 13.375 -6.5 "/></g></g></g><g fill="#000000" fill-opacity="1"><g transform="translate(193.657836, 229.491994)"><g><path d="M 8.453125 -10.109375 L 8.453125 -1.34375 C 8.453125 -1.207031 8.429688 -1.09375 8.390625 -1 L 9.15625 -1 L 9.15625 0 L 8.609375 0 L 8.1875 -0.5 L 8.15625 -0.5 C 8.019531 -0.332031 7.867188 -0.207031 7.703125 -0.125 C 7.523438 -0.0390625 7.34375 0 7.15625 0 L 0.984375 0 L 0.5 -0.609375 L 0.5 -1 L 4.28125 -1 L 1.84375 -8.375 L 3.046875 -8.375 L 5.5 -1 L 6.703125 -1 C 6.867188 -1 7.003906 -1.054688 7.109375 -1.171875 C 7.191406 -1.265625 7.234375 -1.390625 7.234375 -1.546875 L 7.234375 -10.109375 Z M 8.453125 -10.109375 "/></g></g></g><g fill="#000000" fill-opacity="1"><g transform="translate(202.751621, 229.491994)"><g><path d="M 3.6875 -10.109375 L 3.6875 -1.34375 C 3.6875 -0.976562 3.5625 -0.664062 3.3125 -0.40625 C 3.0625 -0.132812 2.757812 0 2.40625 0 L -0.0625 0 L -0.0625 -1 L 1.953125 -1 C 2.128906 -1 2.265625 -1.0625 2.359375 -1.1875 C 2.441406 -1.289062 2.484375 -1.410156 2.484375 -1.546875 L 2.484375 -10.109375 Z M 3.6875 -10.109375 "/></g></g></g><g fill="#e53a1e" fill-opacity="1"><g transform="translate(73.198947, 250.554785)"><g><path d="M 1.71875 -3.125 L 1.71875 -0.78125 L 5.75 -0.78125 L 5.75 0 L 0.84375 0 L 0.84375 -6.84375 L 5.578125 -6.84375 L 5.578125 -6.078125 L 1.71875 -6.078125 L 1.71875 -3.890625 L 5.4375 -3.890625 L 5.4375 -3.125 Z M 1.71875 -3.125 "/></g></g></g><g fill="#e53a1e" fill-opacity="1"><g transform="translate(79.463434, 250.554785)"><g><path d="M 6.0625 -6.84375 L 6.0625 0 L 5.09375 0 L 1.546875 -5.5625 L 1.546875 0 L 0.71875 0 L 0.71875 -6.84375 L 1.65625 -6.84375 L 5.234375 -1.25 L 5.234375 -6.84375 Z M 6.0625 -6.84375 "/></g></g></g><g fill="#e53a1e" fill-opacity="1"><g transform="translate(86.244379, 250.554785)"><g><path d="M 6.65625 -3.609375 L 6.65625 0 L 6.09375 0 L 5.875 -0.96875 C 5.226562 -0.25 4.453125 0.109375 3.546875 0.109375 C 2.554688 0.109375 1.765625 -0.257812 1.171875 -1 C 0.660156 -1.632812 0.40625 -2.4375 0.40625 -3.40625 C 0.40625 -4.65625 0.816406 -5.617188 1.640625 -6.296875 C 2.179688 -6.734375 2.867188 -6.953125 3.703125 -6.953125 C 4.691406 -6.953125 5.445312 -6.648438 5.96875 -6.046875 C 6.257812 -5.722656 6.457031 -5.304688 6.5625 -4.796875 L 5.671875 -4.796875 C 5.578125 -5.222656 5.351562 -5.554688 5 -5.796875 C 4.644531 -6.046875 4.207031 -6.171875 3.6875 -6.171875 C 2.914062 -6.171875 2.304688 -5.890625 1.859375 -5.328125 C 1.472656 -4.835938 1.28125 -4.210938 1.28125 -3.453125 C 1.28125 -2.554688 1.523438 -1.851562 2.015625 -1.34375 C 2.429688 -0.894531 3.003906 -0.671875 3.734375 -0.671875 C 4.398438 -0.671875 4.9375 -0.882812 5.34375 -1.3125 C 5.695312 -1.695312 5.875 -2.164062 5.875 -2.71875 L 5.875 -2.828125 L 3.796875 -2.828125 L 3.796875 -3.609375 Z M 6.65625 -3.609375 "/></g></g></g><g fill="#e53a1e" fill-opacity="1"><g transform="translate(93.551351, 250.554785)"><g><path d="M 1.828125 -6.84375 L 1.828125 0 L 0.9375 0 L 0.9375 -6.84375 Z M 1.828125 -6.84375 "/></g></g></g><g fill="#e53a1e" fill-opacity="1"><g transform="translate(96.162346, 250.554785)"><g><path d="M 6.0625 -6.84375 L 6.0625 0 L 5.09375 0 L 1.546875 -5.5625 L 1.546875 0 L 0.71875 0 L 0.71875 -6.84375 L 1.65625 -6.84375 L 5.234375 -1.25 L 5.234375 -6.84375 Z M 6.0625 -6.84375 "/></g></g></g><g fill="#e53a1e" fill-opacity="1"><g transform="translate(102.943292, 250.554785)"><g><path d="M 1.71875 -3.125 L 1.71875 -0.78125 L 5.75 -0.78125 L 5.75 0 L 0.84375 0 L 0.84375 -6.84375 L 5.578125 -6.84375 L 5.578125 -6.078125 L 1.71875 -6.078125 L 1.71875 -3.890625 L 5.4375 -3.890625 L 5.4375 -3.125 Z M 1.71875 -3.125 "/></g></g></g><g fill="#e53a1e" fill-opacity="1"><g transform="translate(109.207778, 250.554785)"><g><path d="M 1.71875 -3.125 L 1.71875 -0.78125 L 5.75 -0.78125 L 5.75 0 L 0.84375 0 L 0.84375 -6.84375 L 5.578125 -6.84375 L 5.578125 -6.078125 L 1.71875 -6.078125 L 1.71875 -3.890625 L 5.4375 -3.890625 L 5.4375 -3.125 Z M 1.71875 -3.125 "/></g></g></g><g fill="#e53a1e" fill-opacity="1"><g transform="translate(115.472265, 250.554785)"><g><path d="M 1.734375 -2.9375 L 1.734375 0 L 0.875 0 L 0.875 -6.84375 L 4.015625 -6.84375 C 4.742188 -6.84375 5.285156 -6.664062 5.640625 -6.3125 C 5.953125 -6 6.109375 -5.566406 6.109375 -5.015625 C 6.109375 -4.617188 6.023438 -4.289062 5.859375 -4.03125 C 5.691406 -3.78125 5.410156 -3.5625 5.015625 -3.375 C 5.328125 -3.25 5.554688 -3.085938 5.703125 -2.890625 C 5.847656 -2.679688 5.929688 -2.25 5.953125 -1.59375 C 5.960938 -1.113281 5.992188 -0.789062 6.046875 -0.625 C 6.097656 -0.46875 6.207031 -0.332031 6.375 -0.21875 L 6.375 0 L 5.3125 0 C 5.175781 -0.289062 5.109375 -0.597656 5.109375 -0.921875 L 5.109375 -2 C 5.109375 -2.070312 5.078125 -2.179688 5.015625 -2.328125 C 4.960938 -2.472656 4.914062 -2.578125 4.875 -2.640625 C 4.695312 -2.835938 4.398438 -2.9375 3.984375 -2.9375 Z M 1.734375 -3.71875 L 3.859375 -3.71875 C 4.753906 -3.71875 5.203125 -4.109375 5.203125 -4.890625 C 5.203125 -5.679688 4.753906 -6.078125 3.859375 -6.078125 L 1.734375 -6.078125 Z M 1.734375 -3.71875 "/></g></g></g><g fill="#e53a1e" fill-opacity="1"><g transform="translate(122.253211, 250.554785)"><g><path d="M 1.828125 -6.84375 L 1.828125 0 L 0.9375 0 L 0.9375 -6.84375 Z M 1.828125 -6.84375 "/></g></g></g><g fill="#e53a1e" fill-opacity="1"><g transform="translate(124.864206, 250.554785)"><g><path d="M 6.0625 -6.84375 L 6.0625 0 L 5.09375 0 L 1.546875 -5.5625 L 1.546875 0 L 0.71875 0 L 0.71875 -6.84375 L 1.65625 -6.84375 L 5.234375 -1.25 L 5.234375 -6.84375 Z M 6.0625 -6.84375 "/></g></g></g><g fill="#e53a1e" fill-opacity="1"><g transform="translate(131.645152, 250.554785)"><g><path d="M 6.65625 -3.609375 L 6.65625 0 L 6.09375 0 L 5.875 -0.96875 C 5.226562 -0.25 4.453125 0.109375 3.546875 0.109375 C 2.554688 0.109375 1.765625 -0.257812 1.171875 -1 C 0.660156 -1.632812 0.40625 -2.4375 0.40625 -3.40625 C 0.40625 -4.65625 0.816406 -5.617188 1.640625 -6.296875 C 2.179688 -6.734375 2.867188 -6.953125 3.703125 -6.953125 C 4.691406 -6.953125 5.445312 -6.648438 5.96875 -6.046875 C 6.257812 -5.722656 6.457031 -5.304688 6.5625 -4.796875 L 5.671875 -4.796875 C 5.578125 -5.222656 5.351562 -5.554688 5 -5.796875 C 4.644531 -6.046875 4.207031 -6.171875 3.6875 -6.171875 C 2.914062 -6.171875 2.304688 -5.890625 1.859375 -5.328125 C 1.472656 -4.835938 1.28125 -4.210938 1.28125 -3.453125 C 1.28125 -2.554688 1.523438 -1.851562 2.015625 -1.34375 C 2.429688 -0.894531 3.003906 -0.671875 3.734375 -0.671875 C 4.398438 -0.671875 4.9375 -0.882812 5.34375 -1.3125 C 5.695312 -1.695312 5.875 -2.164062 5.875 -2.71875 L 5.875 -2.828125 L 3.796875 -2.828125 L 3.796875 -3.609375 Z M 6.65625 -3.609375 "/></g></g></g><g fill="#e53a1e" fill-opacity="1"><g transform="translate(138.952123, 250.554785)"><g/></g></g><g fill="#e53a1e" fill-opacity="1"><g transform="translate(140.71192, 250.554785)"><g><path d="M 6.21875 -4.75 L 5.3125 -4.75 C 5.21875 -5.207031 5.050781 -5.539062 4.8125 -5.75 C 4.507812 -6.03125 4.066406 -6.171875 3.484375 -6.171875 C 2.765625 -6.171875 2.210938 -5.890625 1.828125 -5.328125 C 1.484375 -4.835938 1.3125 -4.195312 1.3125 -3.40625 C 1.3125 -2.507812 1.539062 -1.8125 2 -1.3125 C 2.394531 -0.882812 2.910156 -0.671875 3.546875 -0.671875 C 4.316406 -0.671875 4.847656 -0.953125 5.140625 -1.515625 C 5.273438 -1.773438 5.378906 -2.125 5.453125 -2.5625 L 6.359375 -2.5625 C 6.148438 -0.78125 5.21875 0.109375 3.5625 0.109375 C 2.664062 0.109375 1.957031 -0.148438 1.4375 -0.671875 C 0.78125 -1.347656 0.453125 -2.25 0.453125 -3.375 C 0.453125 -4.46875 0.769531 -5.367188 1.40625 -6.078125 C 1.925781 -6.660156 2.644531 -6.953125 3.5625 -6.953125 C 5.050781 -6.953125 5.9375 -6.21875 6.21875 -4.75 Z M 6.21875 -4.75 "/></g></g></g><g fill="#e53a1e" fill-opacity="1"><g transform="translate(147.492865, 250.554785)"><g><path d="M 3.65625 -6.953125 C 4.71875 -6.953125 5.554688 -6.585938 6.171875 -5.859375 C 6.703125 -5.210938 6.96875 -4.398438 6.96875 -3.421875 C 6.96875 -2.296875 6.625 -1.40625 5.9375 -0.75 C 5.34375 -0.175781 4.582031 0.109375 3.65625 0.109375 C 2.59375 0.109375 1.753906 -0.257812 1.140625 -1 C 0.617188 -1.632812 0.359375 -2.441406 0.359375 -3.421875 C 0.359375 -4.546875 0.703125 -5.4375 1.390625 -6.09375 C 1.984375 -6.664062 2.738281 -6.953125 3.65625 -6.953125 Z M 3.65625 -6.171875 C 2.875 -6.171875 2.257812 -5.890625 1.8125 -5.328125 C 1.414062 -4.828125 1.21875 -4.191406 1.21875 -3.421875 C 1.21875 -2.535156 1.472656 -1.835938 1.984375 -1.328125 C 2.421875 -0.890625 2.976562 -0.671875 3.65625 -0.671875 C 4.4375 -0.671875 5.054688 -0.953125 5.515625 -1.515625 C 5.898438 -2.015625 6.09375 -2.648438 6.09375 -3.421875 C 6.09375 -4.304688 5.835938 -5.003906 5.328125 -5.515625 C 4.890625 -5.953125 4.332031 -6.171875 3.65625 -6.171875 Z M 3.65625 -6.171875 "/></g></g></g><g fill="#e53a1e" fill-opacity="1"><g transform="translate(154.799837, 250.554785)"><g><path d="M 6.0625 -6.84375 L 6.0625 0 L 5.09375 0 L 1.546875 -5.5625 L 1.546875 0 L 0.71875 0 L 0.71875 -6.84375 L 1.65625 -6.84375 L 5.234375 -1.25 L 5.234375 -6.84375 Z M 6.0625 -6.84375 "/></g></g></g><g fill="#e53a1e" fill-opacity="1"><g transform="translate(161.580782, 250.554785)"><g><path d="M 5.59375 -4.875 L 4.765625 -4.875 C 4.753906 -5.769531 4.1875 -6.21875 3.0625 -6.21875 C 2.601562 -6.21875 2.234375 -6.113281 1.953125 -5.90625 C 1.671875 -5.695312 1.53125 -5.425781 1.53125 -5.09375 C 1.53125 -4.832031 1.613281 -4.625 1.78125 -4.46875 C 1.945312 -4.320312 2.238281 -4.195312 2.65625 -4.09375 L 4.28125 -3.671875 C 5.3125 -3.398438 5.828125 -2.828125 5.828125 -1.953125 C 5.828125 -1.316406 5.578125 -0.800781 5.078125 -0.40625 C 4.628906 -0.0625 3.988281 0.109375 3.15625 0.109375 C 2.09375 0.109375 1.320312 -0.207031 0.84375 -0.84375 C 0.59375 -1.195312 0.460938 -1.660156 0.453125 -2.234375 L 1.265625 -2.234375 L 1.265625 -2.21875 C 1.265625 -1.71875 1.4375 -1.332031 1.78125 -1.0625 C 2.125 -0.789062 2.601562 -0.65625 3.21875 -0.65625 C 3.769531 -0.65625 4.1875 -0.75 4.46875 -0.9375 C 4.789062 -1.15625 4.953125 -1.46875 4.953125 -1.875 C 4.953125 -2.382812 4.535156 -2.742188 3.703125 -2.953125 L 2 -3.390625 C 1.101562 -3.617188 0.65625 -4.144531 0.65625 -4.96875 C 0.65625 -5.625 0.898438 -6.128906 1.390625 -6.484375 C 1.816406 -6.796875 2.382812 -6.953125 3.09375 -6.953125 C 4.082031 -6.953125 4.789062 -6.660156 5.21875 -6.078125 C 5.46875 -5.742188 5.59375 -5.378906 5.59375 -4.984375 C 5.59375 -4.960938 5.59375 -4.925781 5.59375 -4.875 Z M 5.59375 -4.875 "/></g></g></g><g fill="#e53a1e" fill-opacity="1"><g transform="translate(167.845269, 250.554785)"><g><path d="M 5.1875 -6.84375 L 6.046875 -6.84375 L 6.046875 -2.15625 C 6.046875 -1.414062 5.773438 -0.84375 5.234375 -0.4375 C 4.773438 -0.0703125 4.164062 0.109375 3.40625 0.109375 C 2.539062 0.109375 1.875 -0.117188 1.40625 -0.578125 C 1 -0.972656 0.796875 -1.5 0.796875 -2.15625 L 0.796875 -6.84375 L 1.65625 -6.84375 L 1.65625 -2.15625 C 1.65625 -1.675781 1.804688 -1.304688 2.109375 -1.046875 C 2.421875 -0.796875 2.851562 -0.671875 3.40625 -0.671875 C 4 -0.671875 4.453125 -0.816406 4.765625 -1.109375 C 5.046875 -1.367188 5.1875 -1.71875 5.1875 -2.15625 Z M 5.1875 -6.84375 "/></g></g></g><g fill="#e53a1e" fill-opacity="1"><g transform="translate(174.626214, 250.554785)"><g><path d="M 1.625 -6.84375 L 1.625 -0.78125 L 5 -0.78125 L 5 0 L 0.75 0 L 0.75 -6.84375 Z M 1.625 -6.84375 "/></g></g></g><g fill="#e53a1e" fill-opacity="1"><g transform="translate(179.848216, 250.554785)"><g><path d="M 3.328125 -6.078125 L 3.328125 0 L 2.453125 0 L 2.453125 -6.078125 L 0.203125 -6.078125 L 0.203125 -6.84375 L 5.5625 -6.84375 L 5.5625 -6.078125 Z M 3.328125 -6.078125 "/></g></g></g><g fill="#e53a1e" fill-opacity="1"><g transform="translate(185.586677, 250.554785)"><g><path d="M 4.453125 -2.0625 L 1.8125 -2.0625 L 1.09375 0 L 0.15625 0 L 2.59375 -6.84375 L 3.734375 -6.84375 L 6.125 0 L 5.15625 0 Z M 4.203125 -2.796875 L 3.15625 -5.90625 L 2.03125 -2.796875 Z M 4.203125 -2.796875 "/></g></g></g><g fill="#e53a1e" fill-opacity="1"><g transform="translate(191.851163, 250.554785)"><g><path d="M 6.0625 -6.84375 L 6.0625 0 L 5.09375 0 L 1.546875 -5.5625 L 1.546875 0 L 0.71875 0 L 0.71875 -6.84375 L 1.65625 -6.84375 L 5.234375 -1.25 L 5.234375 -6.84375 Z M 6.0625 -6.84375 "/></g></g></g><g fill="#e53a1e" fill-opacity="1"><g transform="translate(198.632109, 250.554785)"><g><path d="M 6.21875 -4.75 L 5.3125 -4.75 C 5.21875 -5.207031 5.050781 -5.539062 4.8125 -5.75 C 4.507812 -6.03125 4.066406 -6.171875 3.484375 -6.171875 C 2.765625 -6.171875 2.210938 -5.890625 1.828125 -5.328125 C 1.484375 -4.835938 1.3125 -4.195312 1.3125 -3.40625 C 1.3125 -2.507812 1.539062 -1.8125 2 -1.3125 C 2.394531 -0.882812 2.910156 -0.671875 3.546875 -0.671875 C 4.316406 -0.671875 4.847656 -0.953125 5.140625 -1.515625 C 5.273438 -1.773438 5.378906 -2.125 5.453125 -2.5625 L 6.359375 -2.5625 C 6.148438 -0.78125 5.21875 0.109375 3.5625 0.109375 C 2.664062 0.109375 1.957031 -0.148438 1.4375 -0.671875 C 0.78125 -1.347656 0.453125 -2.25 0.453125 -3.375 C 0.453125 -4.46875 0.769531 -5.367188 1.40625 -6.078125 C 1.925781 -6.660156 2.644531 -6.953125 3.5625 -6.953125 C 5.050781 -6.953125 5.9375 -6.21875 6.21875 -4.75 Z M 6.21875 -4.75 "/></g></g></g><g fill="#e53a1e" fill-opacity="1"><g transform="translate(205.413055, 250.554785)"><g><path d="M 3.640625 -2.6875 L 3.640625 0 L 2.765625 0 L 2.765625 -2.6875 L 0.125 -6.84375 L 1.1875 -6.84375 L 3.21875 -3.515625 L 5.15625 -6.84375 L 6.203125 -6.84375 Z M 3.640625 -2.6875 "/></g></g></g><g clip-path="url(#4b3314bcf6)"><path fill="#e53a1e" d="M 238.773438 253.070312 L 298.988281 229.042969 L 359.203125 253.070312 Z M 266.785156 203.300781 L 255.089844 212.878906 L 255.089844 243.226562 L 266.785156 238.558594 Z M 342.882812 192.445312 L 332.648438 200.828125 L 332.648438 239.140625 L 342.882812 243.226562 Z M 317.371094 153.714844 L 329.789062 163.890625 L 329.789062 237.996094 L 317.371094 233.042969 Z M 314.507812 121.871094 L 296.078125 136.96875 L 296.078125 145.457031 L 305.96875 153.5625 L 305.96875 228.492188 L 314.507812 231.902344 Z M 281.820312 163.617188 L 269.644531 173.59375 L 269.644531 237.417969 L 281.820312 232.558594 Z M 284.679688 139.816406 L 303.109375 154.917969 L 303.109375 227.351562 L 298.988281 225.707031 L 284.679688 231.417969 Z M 359.203125 253.070312 L 298.988281 239.347656 L 238.773438 253.070312 L 298.988281 242.988281 L 359.203125 253.070312 " fill-opacity="1" fill-rule="evenodd"/></g></svg>